HIERARCHY
ROOT Hips
{
	OFFSET 0.00000 0.00000 0.00000
	CHANNELS 6 Xposition Yposition Zposition Zrotation Yrotation Xrotation 
	JOINT LHipJoint
	{
		OFFSET 0 0 0
		CHANNELS 3 Zrotation Yrotation Xrotation
		JOINT LeftUpLeg
		{
			OFFSET 1.55766 -1.60504 1.11378
			CHANNELS 3 Zrotation Yrotation Xrotation
			JOINT LeftLeg
			{
				OFFSET 2.29047 -6.29302 0.00000
				CHANNELS 3 Zrotation Yrotation Xrotation
				JOINT LeftFoot
				{
					OFFSET 2.52265 -6.93093 0.00000
					CHANNELS 3 Zrotation Yrotation Xrotation
					JOINT LeftToeBase
					{
						OFFSET 0.17633 -0.48446 2.02656
						CHANNELS 3 Zrotation Yrotation Xrotation
						End Site
						{
							OFFSET 0.00000 -0.00000 1.04989
						}
					}
				}
			}
		}
	}
	JOINT RHipJoint
	{
		OFFSET 0 0 0
		CHANNELS 3 Zrotation Yrotation Xrotation
		JOINT RightUpLeg
		{
			OFFSET -1.48599 -1.60504 1.11378
			CHANNELS 3 Zrotation Yrotation Xrotation
			JOINT RightLeg
			{
				OFFSET -2.27280 -6.24448 0.00000
				CHANNELS 3 Zrotation Yrotation Xrotation
				JOINT RightFoot
				{
					OFFSET -2.50834 -6.89161 0.00000
					CHANNELS 3 Zrotation Yrotation Xrotation
					JOINT RightToeBase
					{
						OFFSET -0.26967 -0.74090 2.08741
						CHANNELS 3 Zrotation Yrotation Xrotation
						End Site
						{
							OFFSET -0.00000 -0.00000 1.10614
						}
					}
				}
			}
		}
	}
	JOINT LowerBack
	{
		OFFSET 0 0 0
		CHANNELS 3 Zrotation Yrotation Xrotation
		JOINT Spine
		{
			OFFSET 0.06481 2.02437 -0.08472
			CHANNELS 3 Zrotation Yrotation Xrotation
			JOINT Spine1
			{
				OFFSET 0.00015 1.96711 0.18069
				CHANNELS 3 Zrotation Yrotation Xrotation
				JOINT Neck
				{
					OFFSET 0 0 0
					CHANNELS 3 Zrotation Yrotation Xrotation
					JOINT Neck1
					{
						OFFSET -0.29961 1.68293 -0.13041
						CHANNELS 3 Zrotation Yrotation Xrotation
						JOINT Head
						{
							OFFSET 0.59697 1.61501 -0.14669
							CHANNELS 3 Zrotation Yrotation Xrotation
							End Site
							{
								OFFSET 0.22973 1.74906 -0.10148
							}
						}
					}
				}
				JOINT LeftShoulder
				{
					OFFSET 0 0 0
					CHANNELS 3 Zrotation Yrotation Xrotation
					JOINT LeftArm
					{
						OFFSET 3.37968 1.02893 0.31147
						CHANNELS 3 Zrotation Yrotation Xrotation
						JOINT LeftForeArm
						{
							OFFSET 5.19807 -0.00000 -0.00000
							CHANNELS 3 Zrotation Yrotation Xrotation
							JOINT LeftHand
							{
								OFFSET 3.09370 -0.00000 -0.00000
								CHANNELS 3 Zrotation Yrotation Xrotation
								JOINT LeftFingerBase
								{
									OFFSET 0 0 0
									CHANNELS 3 Zrotation Yrotation Xrotation
									JOINT LeftHandIndex1
									{
										OFFSET 0.67263 -0.00000 -0.00000
										CHANNELS 3 Zrotation Yrotation Xrotation
										End Site
										{
											OFFSET 0.54229 -0.00000 -0.00000
										}
									}
								}
								JOINT LThumb
								{
									OFFSET 0 0 0
									CHANNELS 3 Zrotation Yrotation Xrotation
									End Site
									{
										OFFSET 0.55057 -0.00000 0.55057
									}
								}
							}
						}
					}
				}
				JOINT RightShoulder
				{
					OFFSET 0 0 0
					CHANNELS 3 Zrotation Yrotation Xrotation
					JOINT RightArm
					{
						OFFSET -3.38254 0.96355 -0.16120
						CHANNELS 3 Zrotation Yrotation Xrotation
						JOINT RightForeArm
						{
							OFFSET -5.45222 -0.00000 -0.00000
							CHANNELS 3 Zrotation Yrotation Xrotation
							JOINT RightHand
							{
								OFFSET -3.01284 -0.00000 -0.00000
								CHANNELS 3 Zrotation Yrotation Xrotation
								JOINT RightFingerBase
								{
									OFFSET 0 0 0
									CHANNELS 3 Zrotation Yrotation Xrotation
									JOINT RightHandIndex1
									{
										OFFSET -0.62230 -0.00000 -0.00000
										CHANNELS 3 Zrotation Yrotation Xrotation
										End Site
										{
											OFFSET -0.50171 -0.00000 -0.00000
										}
									}
								}
								JOINT RThumb
								{
									OFFSET 0 0 0
									CHANNELS 3 Zrotation Yrotation Xrotation
									End Site
									{
										OFFSET -0.50937 -0.00000 0.50937
									}
								}
							}
						}
					}
				}
			}
		}
	}
}
MOTION
Frames: 14
Frame Time: 0.0571429
0.00 0.00 0.00 -179.6990 5.7319 -172.1630 0.0000 0.0000 0.0000 -22.4440 -7.0278 -24.5999 3.1280 10.8995 31.9415 0.5981 -12.0233 -15.0907 0.5373 -4.6965 -13.0449 0.0000 0.0000 0.0000 16.3885 9.7961 -27.5683 -11.0157 -17.9427 62.8325 1.1131 18.5559 3.5926 -2.7616 10.2988 -29.9497 -2.4963 2.9486 -3.8221 -3.3534 4.2611 0.2202 -1.7990 2.1707 2.4443 -24.4464 -5.1552 15.6781 53.9073 -18.9118 -25.9113 33.5556 -17.1994 -0.1138 -0.0000 -0.0000 0.0000 -77.8092 -0.0835 49.5080 22.2038 -33.2066 -6.6971 -0.0000 0.0000 -43.1592 17.0502 -13.4130 -4.0693 -7.1250 0.0000 -0.0000 -7.0837 16.0443 4.8880 -0.0000 -0.0000 0.0000 87.7199 7.7116 53.8258 -11.2788 18.7144 -1.8644 0.0000 0.0000 35.8298 -9.8030 0.5428 -0.0938 7.1250 -0.0000 -0.0000 13.0543 -29.3063 5.1147
0.00 0.00 0.00 -181.4200 3.2587 -174.5560 0.0000 0.0000 0.0000 -25.8580 -1.4478 -15.6081 2.3536 9.5668 27.5849 0.5313 -17.3798 -16.7848 0.2705 -3.3454 -9.2419 0.0000 0.0000 0.0000 15.7921 12.7718 -36.3843 -6.7555 -15.1225 47.9433 -0.3139 5.4238 -10.0968 -2.6146 10.0434 -29.1174 -3.7579 2.7590 -2.7074 -3.8693 4.0454 -0.4158 -1.7248 2.1005 1.1156 -27.9642 -6.4834 17.4543 51.2231 -19.7251 -19.9327 29.7982 -16.0636 1.5632 0.0000 -0.0000 0.0000 -78.5010 -3.4063 50.7924 19.1565 -29.6126 -5.1079 -0.0000 0.0000 -38.4137 18.3767 -9.8470 -3.2516 -7.1250 0.0000 -0.0000 -6.1304 19.6453 3.7338 0.0000 -0.0000 0.0000 90.8181 10.9975 50.8150 -16.0377 25.5717 -3.6622 0.0000 0.0000 14.2194 -13.0210 -6.5557 1.5124 7.1250 -0.0000 -0.0000 11.5483 -36.4920 2.4567
0.00 0.00 0.00 -183.1680 -0.9289 -173.4630 0.0000 0.0000 0.0000 -28.0715 2.1624 -4.7723 0.8987 6.0420 16.9063 -0.0317 -21.5102 -14.9070 0.1444 -2.4489 -6.7479 0.0000 0.0000 0.0000 17.2594 10.8177 -39.2920 -0.8842 -5.9942 16.7676 0.2105 10.8496 11.6601 -1.6901 8.1884 -23.2879 -4.4533 2.8682 -6.3702 -4.1098 3.9936 -0.8039 -1.4160 1.8456 2.7215 -30.3580 -6.7011 17.9507 49.0652 -19.3978 -16.2420 28.2172 -14.8829 2.1487 0.0000 -0.0000 0.0000 -81.4368 -0.2920 47.4147 21.8525 -32.8100 -6.5058 -0.0000 0.0000 -41.5744 18.7685 -11.3327 -3.8203 -7.1250 0.0000 -0.0000 -5.8635 18.0653 3.7760 0.0000 -0.0000 0.0000 92.7815 8.7493 49.5647 -24.8106 36.0098 -8.1783 0.0000 0.0000 10.0012 -15.1363 -0.4524 0.1224 7.1250 -0.0000 -0.0000 9.0254 -30.3807 3.2577
0.00 0.00 0.00 -182.2420 -7.2653 -173.0010 0.0000 0.0000 0.0000 -25.6272 2.6570 16.8455 0.0030 0.3509 0.9640 -1.2489 -20.8842 -0.7174 1.2094 -6.9767 -19.6464 0.0000 0.0000 0.0000 18.9302 13.7682 -37.6346 -2.2814 -9.4291 27.1470 0.2505 9.4539 7.0666 -0.4476 4.2923 -11.9004 -0.6486 1.3561 -11.7143 -2.0002 1.7278 -2.3204 -1.4674 0.7494 4.1792 -30.2367 -6.3637 19.2383 46.0433 -20.4940 -8.5963 24.9800 -14.7365 3.6250 0.0000 0.0000 0.0000 -82.1278 4.8678 43.9134 10.2850 -17.1841 -1.5581 -0.0000 0.0000 -6.8215 1.5223 -6.8633 -0.1820 -7.1250 0.0000 -0.0000 -18.3334 23.1552 10.1610 0.0000 0.0000 0.0000 92.4437 7.5535 32.2649 -10.4910 17.5038 -1.6195 0.0000 0.0000 35.6658 -9.0014 2.8764 -0.4554 7.1250 -0.0000 -0.0000 13.3819 -26.9975 6.0025
0.00 0.00 0.00 -179.9410 -8.8655 -173.0060 0.0000 0.0000 0.0000 -23.4144 -1.4685 10.1584 1.2489 7.0854 19.9687 -1.3431 -20.0135 8.6214 1.1373 -6.7728 -19.0440 0.0000 0.0000 0.0000 21.3287 14.3350 -33.8518 -2.9307 -10.5820 30.8827 0.2400 9.3764 -0.4305 -0.4396 4.2543 -11.7933 1.7819 0.0247 -12.7673 0.7452 -0.5492 -3.0651 -0.3240 -0.3932 3.9324 -30.3801 -6.1909 18.8594 44.7674 -20.9159 -6.2535 23.7966 -14.6876 4.2249 -0.0000 0.0000 0.0000 -81.3237 8.8274 54.4622 11.9462 -19.7238 -2.0841 -0.0000 -0.0000 1.8815 -10.6829 -4.4472 0.8380 -7.1250 0.0000 -0.0000 -27.1437 25.1250 14.6913 -0.0000 0.0000 0.0000 86.1019 4.6398 29.6763 -9.4461 15.8686 -1.3195 0.0000 0.0000 43.9745 -5.9603 -1.0217 0.1067 7.1250 -0.0000 -0.0000 16.2414 -30.7537 5.8637
0.00 0.00 0.00 -179.8840 -10.6732 -172.8820 0.0000 0.0000 0.0000 -21.7401 -1.0433 5.2325 2.5215 9.8768 28.5787 0.3358 -13.9970 23.2964 0.0363 -1.2298 -3.3813 0.0000 0.0000 0.0000 22.5997 10.2616 -32.5925 -3.1617 -10.9524 32.1195 0.2382 11.7680 -4.2555 -0.3378 3.7350 -10.3323 1.8184 -0.9992 -12.1553 1.8613 -2.0278 -3.9979 0.6152 -1.1848 2.6370 -30.4088 -6.0446 18.8237 44.0282 -21.2758 -4.7851 23.1681 -14.7762 4.6156 0.0000 0.0000 0.0000 -80.5143 11.6003 58.8264 15.0043 -24.1521 -3.2277 -0.0000 0.0000 -11.4936 -10.1802 -4.8648 0.8725 -7.1250 0.0000 -0.0000 -26.7172 24.7699 14.6549 0.0000 0.0000 0.0000 81.4955 0.0852 35.9433 -12.0369 19.8599 -2.1148 0.0000 0.0000 33.7323 -4.1880 -0.6425 0.0470 7.1250 -0.0000 -0.0000 17.5332 -30.3396 6.5531
0.00 0.00 0.00 -176.7160 -10.5888 -174.2970 0.0000 0.0000 0.0000 -15.8941 0.8426 -6.2271 6.3790 14.7858 46.4845 0.6448 -13.4315 25.3362 0.3286 -3.6844 -10.1905 0.0000 0.0000 0.0000 27.6109 5.1676 -28.7279 -2.9786 -10.6604 31.1429 0.3839 16.3828 -7.0820 -0.2252 3.0549 -8.4315 6.3296 -0.6408 -8.3739 3.4392 -1.8640 -4.1372 -0.1508 -1.1985 0.3306 -29.7964 -6.5266 17.6182 44.2906 -22.2311 -4.3778 22.6960 -15.2125 5.3796 -0.0000 0.0000 0.0000 -80.4199 11.7580 57.7230 19.3723 -29.8786 -5.2150 -0.0000 0.0000 -35.1976 -4.4664 -5.9551 0.4643 -7.1250 0.0000 -0.0000 -22.6421 23.9533 12.4649 -0.0000 0.0000 0.0000 76.5280 -5.9848 37.9653 -16.5207 26.2216 -3.8732 0.0000 0.0000 14.8512 -6.7231 -0.7951 0.0937 7.1250 -0.0000 -0.0000 15.6166 -30.5550 5.6994
0.00 0.00 0.00 -174.8610 -9.0199 -175.8980 0.0000 0.0000 0.0000 -13.0359 1.6925 -14.6503 9.3921 17.0535 57.4366 -1.0168 -17.6906 9.3721 2.2600 -9.3878 -27.0160 0.0000 0.0000 0.0000 30.2706 4.1260 -25.3028 -2.9727 -10.6507 31.1106 0.3370 17.6672 -8.9529 -0.2123 2.9668 -8.1862 8.7109 0.1845 -5.3007 4.0940 -0.6344 -2.7566 -0.6745 -0.5669 0.0909 -28.3550 -6.7624 17.1780 46.2410 -22.4882 -6.6206 23.5506 -15.6798 5.2213 -0.0000 -0.0000 0.0000 -81.8352 7.6775 54.1614 20.6081 -31.3681 -5.8446 -0.0000 0.0000 -40.6033 3.8709 -9.8297 -0.6618 -7.1250 0.0000 -0.0000 -16.3554 20.2933 10.0811 -0.0000 -0.0000 0.0000 75.6949 -7.6486 33.8258 -17.6956 27.7656 -4.4065 0.0000 0.0000 6.6691 -10.9642 -2.8153 0.5452 7.1250 -0.0000 -0.0000 12.6122 -32.6622 3.8929
0.00 0.00 0.00 -184.5280 9.9923 -172.0140 0.0000 0.0000 0.0000 -28.7993 -3.0514 -15.4611 2.1246 9.1209 26.1743 0.6322 -16.9925 -17.3823 0.6916 -5.3164 -14.8133 0.0000 0.0000 0.0000 11.3779 17.4172 -40.5455 -1.6644 -8.1290 23.1065 0.2156 10.6030 -3.2958 -1.8023 8.4415 -24.0632 -2.6406 4.1709 -1.7463 -5.6850 6.2840 2.6147 -4.0653 3.3223 4.0598 -32.6109 -6.5259 10.1509 25.3897 -16.4845 13.1261 13.4614 -9.7547 7.1327 -0.0000 0.0000 0.0000 -80.1996 -5.2316 47.6361 16.7256 -26.4946 -3.9641 -0.0000 0.0000 -33.6654 17.3340 -10.8704 -3.3686 -7.1250 0.0000 -0.0000 -6.8695 18.6512 4.3431 -0.0000 0.0000 0.0000 97.2451 18.2854 38.2124 -17.0579 26.9341 -4.1135 0.0000 0.0000 16.0207 -12.7542 -2.7641 0.6254 7.1250 -0.0000 -0.0000 11.1793 -32.6699 3.4326
0.00 0.00 0.00 -172.0010 67.8097 -158.1220 0.0000 0.0000 0.0000 -15.4064 -0.8620 -20.9340 2.1499 9.1716 26.3336 1.1392 -2.4221 -19.5149 2.9738 -10.6525 -31.1168 0.0000 0.0000 0.0000 24.6123 10.6175 -41.0994 -2.8109 -10.3824 30.2241 -0.0670 12.5843 -9.6919 -1.5652 7.8946 -22.3945 -6.3113 2.3395 -5.3935 -3.3770 3.6084 -2.1290 0.2556 1.8753 0.6567 -36.0398 -11.4119 35.2030 41.1755 -26.9120 -9.3320 21.4573 -17.1092 3.7139 0.0000 -0.0000 0.0000 -70.0158 3.9209 18.3442 15.1313 -24.3288 -3.2799 -0.0000 0.0000 -39.6488 27.1940 -8.4614 -4.3234 -7.1250 0.0000 -0.0000 0.2253 20.4849 -0.1322 0.0000 -0.0000 0.0000 98.9003 17.4693 84.9109 -24.4469 35.6333 -7.9654 0.0000 0.0000 8.1695 -12.4709 -2.5972 0.5742 7.1250 -0.0000 -0.0000 11.3823 -32.4932 3.5466
0.00 0.00 0.00 -194.3690 72.1276 -179.9460 0.0000 0.0000 0.0000 -26.0129 10.5007 -5.5897 0.3236 3.6562 10.1113 1.0241 -5.8535 -18.0674 3.4871 -11.4447 -33.7947 0.0000 0.0000 0.0000 25.8283 2.7981 -46.5184 -1.8884 -8.6297 24.6436 -0.1289 4.8705 -6.7661 -0.9846 6.3158 -17.7036 -7.6027 1.5288 -8.3138 -3.1149 2.8984 -2.8667 1.3006 1.5388 1.4708 -34.4506 -12.6737 39.8031 43.9528 -27.4023 -18.1964 22.8998 -17.9677 1.2767 -0.0000 0.0000 0.0000 -81.5127 5.4886 26.3208 20.6569 -31.4257 -5.8700 -0.0000 0.0000 -39.0988 17.7172 -12.3637 -3.9132 -7.1250 0.0000 -0.0000 -6.6099 17.0747 4.4074 -0.0000 0.0000 0.0000 96.6889 9.8307 68.8847 -24.5464 35.7368 -8.0235 0.0000 0.0000 5.8166 25.9613 4.3747 2.1270 7.1250 -0.0000 -0.0000 36.2657 -23.7533 23.6254
0.00 0.00 0.00 -186.7270 74.8974 -173.9760 0.0000 0.0000 0.0000 -20.0662 6.3661 -8.4552 3.7668 11.8435 35.1805 -0.2673 -10.3463 -1.4220 4.7438 -13.0894 -39.7039 0.0000 0.0000 0.0000 25.4154 7.1211 -37.5147 -3.2877 -11.1469 32.7769 -0.2353 3.0024 -8.6198 -0.0522 1.4745 -4.0554 0.9545 -1.1850 -9.6896 2.3186 -1.5337 -3.9454 1.6973 -0.6829 1.3733 -31.1903 -14.2328 41.7524 46.4521 -26.4645 -24.9044 27.3283 -17.9845 -1.2954 -0.0000 -0.0000 0.0000 -87.6229 9.7575 54.8527 21.4013 -32.2938 -6.2630 -0.0000 0.0000 -41.3560 6.6712 -10.3260 -1.2011 -7.1250 0.0000 -0.0000 -14.3704 19.7367 8.9568 -0.0000 -0.0000 0.0000 86.5367 10.2479 31.5610 -13.0974 21.4298 -2.4888 0.0000 0.0000 19.8181 -23.3291 -9.4972 4.0703 7.1250 -0.0000 -0.0000 3.1995 -40.2850 0.3724
0.00 0.00 0.00 0.1789 0.0304 16.7337 0.0000 0.0000 0.0000 -25.7030 6.3060 -5.3893 2.0744 9.0193 25.8558 0.1659 -1.4498 -7.3212 6.2001 -14.6195 -45.7795 0.0000 0.0000 0.0000 23.1833 12.7931 -41.7523 -2.6608 -10.1246 29.3813 0.6903 15.0940 1.2112 -0.0136 0.7537 -2.0713 1.8932 4.0107 -6.5338 0.1440 5.2582 -4.5798 -0.6076 2.6014 -0.9178 -24.4073 -12.4868 19.8007 50.2816 -18.9724 -16.3551 27.1300 -13.1599 1.2507 0.0000 0.0000 0.0000 -90.1500 12.8245 36.5896 16.0036 -25.5256 -3.6475 -0.0000 0.0000 -40.4730 12.8571 -5.4981 -1.2528 -7.1250 0.0000 -0.0000 -10.2767 24.3453 5.2070 0.0000 0.0000 0.0000 94.1488 14.3217 91.9309 -29.2593 40.2500 -10.9279 0.0000 -0.0000 -12.2148 29.4629 -2.5798 -1.4566 7.1250 -0.0000 -0.0000 40.4767 -29.2887 20.7205
0.00 0.00 0.00 -2.3992 1.5120 15.5792 0.0000 0.0000 0.0000 -18.2728 1.8962 -18.6590 8.1179 16.2053 52.9864 -0.2112 -9.8520 9.5631 3.4121 -11.3341 -33.4150 0.0000 0.0000 0.0000 27.1998 8.3083 -36.4186 -2.8100 -10.3809 30.2193 0.6522 17.8822 -5.1606 -0.0054 0.4767 -1.3097 6.0954 2.3471 -5.9014 3.0243 2.9093 -4.8860 -0.1558 1.3477 -1.6139 -24.6096 -11.9811 20.1984 48.8807 -19.4901 -12.0592 25.6731 -13.0970 2.2025 0.0000 -0.0000 0.0000 -83.0713 10.5122 65.5256 18.6881 -29.0292 -4.8786 -0.0000 0.0000 -35.1386 16.7317 -10.8103 -3.2271 -7.1250 0.0000 -0.0000 -7.2941 18.7543 4.5990 0.0000 -0.0000 0.0000 93.0123 12.2831 57.2388 -11.2120 18.6125 -1.8430 0.0000 0.0000 50.8488 -18.4611 4.1386 -1.3802 7.1250 -0.0000 -0.0000 6.1665 -25.6126 2.9108
